<?xml version="1.0" standalone="no"?><!DOCTYPE svg PUBLIC "-//W3C//DTD SVG 1.1//EN" "http://www.w3.org/Graphics/SVG/1.1/DTD/svg11.dtd"><svg t="1762691918647" class="icon" viewBox="0 0 1024 1024" version="1.1" xmlns="http://www.w3.org/2000/svg" p-id="2246" xmlns:xlink="http://www.w3.org/1999/xlink" width="200" height="200"><path d="M313.715597 512.018044c0 109.510352 88.77581 198.286162 198.286162 198.286162s198.286162-88.77561 198.286162-198.286162-88.77561-198.286162-198.286162-198.286162S313.715597 402.507692 313.715597 512.018044zM291.986729 512.109582c0-121.451856 98.455847-219.907703 219.907503-219.907703 1.99105 0 3.974106 0.02978 5.952164 0.082544l369.750309 0C812.057321 163.441579 672.144582 76.909847 512.001759 76.909847c-151.310611 0-284.560268 77.251024-362.518413 194.449363l142.596919 246.984944C292.021505 516.272559 291.986729 514.194968 291.986729 512.109582zM511.894232 732.017084c-78.177995 0-146.818457-40.799538-185.814018-102.262866l-0.554024 0.320183L133.449817 297.390161c-35.987201 63.335059-56.556455 136.575202-56.556455 214.627882 0 230.922634 179.900627 419.79378 407.190525 434.191218l142.160215-246.229057C592.925493 720.303826 553.777635 732.017084 511.894232 732.017084zM902.11746 319.183785 617.503629 319.183785c68.116417 37.367465 114.298306 109.74939 114.298306 192.925796 0 34.861364-8.125091 67.821217-22.564301 97.108361l0.353161 0.203862-4.279299 7.410975c-1.814969 3.345532-3.719478 6.635301-5.700535 9.873306l-184.974787 320.386378c239.088498-1.421236 432.472783-195.651748 432.472783-435.07442C947.108756 442.764797 930.902344 377.306578 902.11746 319.183785z" fill="#2c2c2c" p-id="2247"></path></svg>